<?xml version="1.0" standalone="no"?>
<!DOCTYPE svg PUBLIC "-//W3C//DTD SVG 20010904//EN"
 "http://www.w3.org/TR/2001/REC-SVG-20010904/DTD/svg10.dtd">
<svg version="1.0" xmlns="http://www.w3.org/2000/svg"
 width="426.000000pt" height="198.000000pt" viewBox="0 0 426.000000 198.000000"
 preserveAspectRatio="xMidYMid meet">

<g transform="translate(0.000000,198.000000) scale(0.100000,-0.100000)"
fill="#000000" stroke="none">
<path d="M1258 1463 c-109 -207 -128 -489 -49 -717 44 -124 137 -265 239 -360
54 -51 137 -116 147 -116 4 0 19 -8 33 -18 46 -32 164 -79 257 -103 122 -33
341 -33 455 -1 148 41 255 89 345 157 146 109 251 245 330 429 53 126 69 338
36 498 -20 95 -31 126 -80 228 l-26 55 -6 -74 c-8 -102 -19 -111 -148 -111
-71 0 -102 4 -119 16 -21 15 -22 14 -22 -20 l0 -36 116 0 c115 0 116 0 146
-30 30 -30 30 -30 26 -131 -4 -135 -9 -138 -170 -139 l-117 0 -3 -159 c-4
-187 -6 -192 -108 -248 -107 -59 -115 -63 -121 -63 -4 0 -30 -15 -58 -34 -28
-19 -75 -46 -106 -61 -48 -24 -59 -26 -84 -15 -16 6 -32 18 -35 26 -7 19 -26
18 -26 -1 0 -9 -15 -22 -33 -31 -32 -15 -36 -15 -83 8 -73 36 -127 68 -149 88
-11 10 -30 21 -43 25 -36 11 -166 86 -179 104 -6 9 -17 33 -24 54 -14 42 -15
43 -35 22 -25 -25 -63 -17 -148 30 -135 75 -120 23 -126 428 l-5 352 -27 -52z
m1611 -791 l24 -16 -32 -11 c-30 -10 -31 -11 -14 -29 17 -17 17 -18 -7 -11
-14 5 -36 15 -49 23 l-23 16 38 11 c35 10 37 12 17 19 -13 4 -23 12 -23 17 0
12 36 2 69 -19z m-1369 -85 c0 -16 -44 -57 -62 -57 -15 0 -38 27 -38 44 0 3
17 17 38 30 33 22 38 23 50 8 6 -9 12 -20 12 -25z m1300 3 c23 -23 25 -39 7
-65 -32 -43 -103 16 -78 64 15 26 45 27 71 1z m-1249 -50 c10 -6 19 -18 19
-27 0 -15 -2 -15 -18 0 -25 23 -35 21 -27 -4 6 -18 4 -20 -14 -14 -24 7 -29
-13 -9 -33 7 -7 8 -12 2 -12 -6 0 -19 9 -28 19 -17 19 -17 21 13 50 36 35 35
35 62 21z m1201 -78 c-14 -4 -82 60 -75 70 3 6 23 -7 45 -28 21 -22 35 -40 30
-42z m-99 22 c-3 -8 4 -25 17 -39 13 -14 20 -28 16 -32 -4 -5 -18 5 -30 20
-16 20 -28 26 -40 21 -16 -6 -17 -4 -7 14 16 30 55 44 44 16z m-1034 -7 c15
-19 1 -30 -17 -14 -13 10 -14 8 -10 -15 8 -40 -12 -64 -40 -49 -12 6 -22 16
-22 21 0 14 14 12 29 -2 10 -11 12 -7 10 17 -5 49 23 73 50 42z m89 -76 c2 -5
-6 -7 -17 -4 -16 4 -25 -3 -38 -26 -10 -17 -21 -31 -25 -31 -12 0 -9 10 12 46
13 20 17 35 10 39 -5 3 -10 11 -10 17 0 11 63 -26 68 -41z m902 7 c39 -23 52
-40 28 -37 -27 3 -36 -2 -42 -23 -7 -22 -7 -22 -15 -3 -13 32 -23 85 -16 85 3
0 24 -10 45 -22z m-80 -49 c12 -23 19 -43 17 -46 -3 -2 -19 3 -37 12 -31 16
-31 16 -20 -5 20 -37 4 -46 -18 -10 -28 45 -29 64 -3 50 30 -16 39 -12 33 15
-7 37 5 30 28 -16z m-715 -1 c33 -15 32 -27 -2 -20 -25 5 -27 4 -14 -11 12
-15 11 -17 -8 -17 -13 0 -25 -9 -30 -22 -5 -15 -10 -18 -15 -9 -5 7 -3 18 3
24 6 6 11 18 11 27 0 13 18 40 27 40 1 0 14 -5 28 -12z m560 -27 c3 -5 -4 -12
-15 -16 -11 -3 -20 -10 -20 -15 0 -5 7 -7 15 -4 8 4 15 1 15 -5 0 -7 -7 -14
-15 -17 -24 -9 -5 -26 21 -20 27 7 33 -8 8 -18 -29 -11 -44 -6 -53 17 -22 58
-22 64 1 75 29 14 36 14 43 3z m-451 -23 c16 -25 -4 -72 -32 -76 -47 -7 -69
43 -35 80 20 22 51 20 67 -4z m90 -4 c18 -7 22 -39 6 -49 -7 -4 -7 -12 0 -25
13 -23 13 -30 0 -30 -5 0 -16 12 -23 27 -14 26 -15 26 -21 5 -12 -36 -29 -14
-21 27 10 53 19 60 59 45z m278 -39 c9 -42 -5 -72 -17 -36 -9 31 -35 27 -35
-6 0 -40 -18 -16 -26 35 -4 28 -3 42 5 42 6 0 11 -7 11 -15 0 -8 7 -15 15 -15
9 0 15 9 15 21 0 34 24 16 32 -26z m-102 25 c0 -5 -10 -10 -21 -10 -19 0 -21
-4 -16 -40 3 -22 1 -40 -4 -40 -5 0 -9 16 -9 36 0 27 -5 37 -20 41 -11 3 -17
9 -14 14 7 12 84 11 84 -1z"/>
<path d="M1460 590 c0 -5 5 -10 10 -10 6 0 10 5 10 10 0 6 -4 10 -10 10 -5 0
-10 -4 -10 -10z"/>
<path d="M1427 573 c-12 -11 -8 -23 8 -23 8 0 15 7 15 15 0 16 -12 20 -23 8z"/>
<path d="M2743 574 c-6 -16 19 -44 39 -44 19 0 21 33 3 46 -25 18 -34 18 -42
-2z"/>
<path d="M1869 289 c-7 -14 -8 -24 -1 -31 17 -17 42 -1 42 27 0 31 -25 34 -41
4z"/>
<path d="M1985 280 c-3 -5 1 -10 10 -10 9 0 13 5 10 10 -3 6 -8 10 -10 10 -2
0 -7 -4 -10 -10z"/>
</g>
</svg>
